<svg viewBox="0 0 570 2360" xmlns="http://www.w3.org/2000/svg" style="background:#0f172a;width:100%;height:auto;display:block;">
  <defs>
    <marker id="cn-dim-arrow" viewBox="0 0 10 10" refX="5" refY="5" markerWidth="6" markerHeight="6" orient="auto-start-reverse"><path d="M0 0L10 5L0 10z" fill="#f59e0b"/></marker>
  </defs>
  <g fill="#F2F2F2">
    <path d="M0,0h510v2300h-510Z" data-id="m4-fondo" data-type="back_panel" stroke="#1e293b" stroke-width="2" opacity="0.25"/>
    <text x="255" y="1154" text-anchor="middle" fill="#0f172a" font-size="10" font-weight="600" font-family="system-ui,sans-serif" pointer-events="none">m4-fondo</text>
  </g>
  <g fill="#8B5A2B">
    <path d="M0,15h15v2270h-15Z" data-id="m4-lateral-izq" data-type="side_panel" stroke="#1e293b" stroke-width="2" opacity="0.25"/>
    <path d="M495,15h15v2270h-15Z" data-id="m4-lateral-der" data-type="side_panel" stroke="#1e293b" stroke-width="2" opacity="0.25"/>
    <path d="M0,0h510v15h-510Z" data-id="m4-tapa" data-type="top_panel" stroke="#1e293b" stroke-width="2" opacity="0.25"/>
    <path d="M0,2285h510v15h-510Z" data-id="m4-base" data-type="bottom_panel" stroke="#1e293b" stroke-width="2" opacity="0.25"/>
  </g>
  <g fill="#D9C2A3">
    <path d="M30,457h450v15h-450Z" data-id="m4-repisa-superior" data-type="shelf" stroke="#1e293b" stroke-width="2" opacity="0.25"/>
    <path d="M30,914h450v15h-450Z" data-id="m4-repisa-inferior-1" data-type="shelf" stroke="#1e293b" stroke-width="2" opacity="0.25"/>
    <path d="M30,1371h450v15h-450Z" data-id="m4-repisa-inferior-2" data-type="shelf" stroke="#1e293b" stroke-width="2" opacity="0.25"/>
    <path d="M30,1828h450v15h-450Z" data-id="m4-repisa-inferior-3" data-type="shelf" stroke="#1e293b" stroke-width="2" opacity="0.25"/>
  </g>
  <line x1="0" y1="2320" x2="510" y2="2320" stroke="#f59e0b" stroke-width="1.5" marker-end="url(#cn-dim-arrow)" marker-start="url(#cn-dim-arrow)"/>
  <text x="255" y="2342" text-anchor="middle" fill="#f59e0b" font-size="13" font-weight="700" font-family="system-ui,sans-serif">510 mm</text>
  <line x1="530" y1="0" x2="530" y2="2300" stroke="#f59e0b" stroke-width="1.5" marker-end="url(#cn-dim-arrow)" marker-start="url(#cn-dim-arrow)"/>
  <text x="552" y="1150" text-anchor="start" fill="#f59e0b" font-size="13" font-weight="700" font-family="system-ui,sans-serif" writing-mode="tb">2300 mm</text>
</svg>