<svg viewBox="0 0 860 1260" xmlns="http://www.w3.org/2000/svg" style="background:#0f172a;width:100%;height:auto;display:block;">
  <defs>
    <marker id="cn-dim-arrow" viewBox="0 0 10 10" refX="5" refY="5" markerWidth="6" markerHeight="6" orient="auto-start-reverse"><path d="M0 0L10 5L0 10z" fill="#f59e0b"/></marker>
  </defs>
  <g fill="#F2F2F2">
    <path d="M0,0h800v1200h-800Z" data-id="m6-fondo" data-type="back_panel" stroke="#1e293b" stroke-width="2" opacity="0.25"/>
    <text x="400" y="604" text-anchor="middle" fill="#0f172a" font-size="10" font-weight="600" font-family="system-ui,sans-serif" pointer-events="none">m6-fondo</text>
  </g>
  <g fill="#8B5A2B">
    <path d="M0,15h15v1170h-15Z" data-id="m6-lateral-izq" data-type="side_panel" stroke="#1e293b" stroke-width="2" opacity="0.25"/>
    <path d="M785,15h15v1170h-15Z" data-id="m6-lateral-der" data-type="side_panel" stroke="#1e293b" stroke-width="2" opacity="0.25"/>
    <path d="M0,0h800v15h-800Z" data-id="m6-tapa" data-type="top_panel" stroke="#1e293b" stroke-width="2" opacity="0.25"/>
    <path d="M0,1185h800v15h-800Z" data-id="m6-base" data-type="bottom_panel" stroke="#1e293b" stroke-width="2" opacity="0.25"/>
  </g>
  <g fill="#D9C2A3">
    <path d="M30,233h740v20h-740Z" data-id="m6-repisa-1" data-type="shelf" stroke="#1e293b" stroke-width="2" opacity="0.25"/>
    <path d="M30,471h740v20h-740Z" data-id="m6-repisa-2" data-type="shelf" stroke="#1e293b" stroke-width="2" opacity="0.25"/>
    <path d="M30,709h740v20h-740Z" data-id="m6-repisa-3" data-type="shelf" stroke="#1e293b" stroke-width="2" opacity="0.25"/>
    <path d="M30,947h740v20h-740Z" data-id="m6-repisa-4" data-type="shelf" stroke="#1e293b" stroke-width="2" opacity="0.25"/>
  </g>
  <line x1="0" y1="1220" x2="800" y2="1220" stroke="#f59e0b" stroke-width="1.5" marker-end="url(#cn-dim-arrow)" marker-start="url(#cn-dim-arrow)"/>
  <text x="400" y="1242" text-anchor="middle" fill="#f59e0b" font-size="13" font-weight="700" font-family="system-ui,sans-serif">800 mm</text>
  <line x1="820" y1="0" x2="820" y2="1200" stroke="#f59e0b" stroke-width="1.5" marker-end="url(#cn-dim-arrow)" marker-start="url(#cn-dim-arrow)"/>
  <text x="842" y="600" text-anchor="start" fill="#f59e0b" font-size="13" font-weight="700" font-family="system-ui,sans-serif" writing-mode="tb">1200 mm</text>
</svg>